<svg xmlns="http://www.w3.org/2000/svg" class="icon" width="200px" height="200.00px" viewBox="0 0 50.6 62.11"><path d="M25.56,62.11,23.25,60C20.87,57.85,0,38.52,0,25.3a25.3,25.3,0,0,1,50.6,0C50.6,38.5,30.17,57.83,27.84,60ZM25.3,6.79A18.54,18.54,0,0,0,6.79,25.3c0,7,10.67,19.72,18.72,27.51,7.87-7.8,18.3-20.49,18.3-27.51A18.54,18.54,0,0,0,25.3,6.79Z"/><path d="M25.47,36.37A11.52,11.52,0,1,1,37,24.85,11.53,11.53,0,0,1,25.47,36.37Zm0-18.29a6.77,6.77,0,1,0,6.77,6.77A6.78,6.78,0,0,0,25.47,18.08Z"/></svg>