<svg width="24" height="24" xmlns="http://www.w3.org/2000/svg"><path d="M11.485 1.262L12 .902l.515.36c.815.568 1.923 1.02 3.249 1.356 1.14.29 2.373.477 3.606.581a24.992 24.992 0 0 0 1.63.084h.9v9.263c0 5.758-4.135 8.885-9.674 10.325L12 22.93l-.226-.059C6.234 21.431 2.1 18.304 2.1 12.546V3.283H3A24.992 24.992 0 0 0 4.63 3.2a22.568 22.568 0 0 0 3.606-.582c1.326-.336 2.434-.788 3.25-1.356zM8.68 4.363a24.32 24.32 0 0 1-3.898.63c-.31.026-.604.046-.881.06v7.493c0 4.611 3.384 7.243 8.1 8.523 4.716-1.28 8.1-3.912 8.1-8.523V5.054a27.68 27.68 0 0 1-.881-.061 24.32 24.32 0 0 1-3.898-.63C14.048 4.04 12.93 3.615 12 3.068c-.929.547-2.048.972-3.321 1.295zM12 20.361v-8.196h7.2v.327c0 5.071-5.235 7.272-7.2 7.869zM4.8 5.935S9.151 5.621 12 3.97v8.196H4.8v-6.23z" fill="#BBB" fill-rule="nonzero"/></svg>