<svg xmlns="http://www.w3.org/2000/svg" class="icon" width="200px" height="200.00px" viewBox="0 0 24 24"><path d="M13.3163202,23.5570364 C12.3553,24.2857302 10.9868747,24.0955745 10.2599596,23.1323299 C5.42599774,16.7276935 3,12.0712267 3,9.02078699 C3,4.0387439 7.02943725,0 12,0 C16.9705627,0 21,4.0387439 21,9.02078699 C21,12.0712316 18.5739943,16.7277089 13.7400165,23.1323616 C13.6189417,23.2927765 13.4763655,23.435682 13.3163202,23.5570364 Z M12,12.2801226 C13.7959333,12.2801226 15.2518248,10.8208684 15.2518248,9.02078709 C15.2518248,7.22070582 13.7959333,5.76145162 12,5.76145162 C10.2040667,5.76145162 8.74817516,7.22070582 8.74817516,9.02078709 C8.74817516,10.8208684 10.2040667,12.2801226 12,12.2801226 Z"></path></svg>