<svg xmlns="http://www.w3.org/2000/svg" class="icon" width="200px" height="200.00px" viewBox="0 0 24 24"><path d="M1.90750191,11.9691736 L1.94324771,12.0049175 L22.0365832,12.0250865 L22.0512468,12.0113364 C22.560926,11.934342 22.9532431,11.4934555 22.9532431,10.9617977 C22.9532431,10.7720642 22.9028339,10.5951402 22.8157656,10.4411514 C22.770835,10.3265593 22.7020829,10.2174988 22.608596,10.123988 L12.6627603,1.27567803 C12.2960909,0.908107323 11.7020828,0.908107323 11.3372397,1.27567803 L1.391404,10.1249011 C1.23923613,10.2770644 1.15125477,10.468651 1.12558012,10.6675428 C1.10358485,10.7546347 1.09074754,10.8435537 1.09074754,10.9379776 C1.08983441,11.4393689 1.43907401,11.860113 1.90750191,11.9691736 Z M21.8651593,20.7239995 L21.4306777,20.7239995 L21.4306777,14.584358 C21.4306777,13.9555377 20.9237647,13.4467876 20.295837,13.4467876 C19.6679094,13.4467876 19.1600832,13.95645 19.1600832,14.584358 L19.1600832,20.7239995 L16.3330794,20.7239995 L16.3330794,16.9373529 C16.3330794,16.3076194 15.8243401,15.7988961 15.1973256,15.7988961 C14.5703379,15.7988961 14.0615718,16.3085325 14.0615718,16.9373529 L14.0615718,20.7239995 L9.98424507,20.7239995 L9.98424507,16.9373529 C9.98424507,16.3076194 9.47459269,15.7988961 8.84666508,15.7988961 C8.21967741,15.7988961 7.71367741,16.3085325 7.71367741,16.9373529 L7.71367741,20.7239995 L4.7711646,20.7239995 L4.7711646,14.584358 C4.7711646,13.9555377 4.26333843,13.4467876 3.63541084,13.4467876 C3.00748314,13.4467876 2.5014832,13.95645 2.5014832,14.584358 L2.5014832,20.7239995 L2.13575385,20.7239995 C1.50873929,20.7239995 1,21.2327228 1,21.8624563 C1,22.4903636 1.50873929,23 2.13575385,23 L21.8642462,23 C22.4921738,23 23,22.4903636 23,21.8624563 C23,21.2327228 22.4921738,20.7239995 21.8651593,20.7239995 Z"></path></svg>