<svg xmlns="http://www.w3.org/2000/svg" class="icon" width="200px" height="200.00px" viewBox="0 0 24 24"><path d="M24,1.44094626 L24,5.08984765 L1.79999997e-08,5.08984765 L1.79999997e-08,1.44094625 C1.79999997e-08,0.645106587 0.588229029,0 1.31390136,0 L22.6860987,0 C23.411771,1.75781252e-08 24,0.645106587 24,1.44094626 Z M0,8.27542405 L24,8.27542405 L24,16.5590538 C24,17.3548934 23.411771,18 22.6860987,18 L1.31390134,18 C0.588229027,18 0,17.3548934 0,16.5590538 L0,8.27542405 Z M15.5073319,11.6967473 C15.5073319,12.4924391 16.095561,13.1376935 16.8212333,13.1376935 L20.7628362,13.1376935 C21.4885085,13.1376935 22.0767375,12.4924391 22.0767375,11.6967473 L22.0767375,11.456491 C22.0767375,10.6607992 21.4885085,10.0155448 20.7628362,10.0155448 L16.821267,10.0155448 C16.0955947,10.0155448 15.5073656,10.6607992 15.5073656,11.456491 L15.5073657,11.6967473 L15.5073319,11.6967473 Z"></path></svg>