<svg xmlns="http://www.w3.org/2000/svg" class="icon" width="200px" height="200.00px" viewBox="0 0 48 48"><path d="M24,0A24,24,0,1,0,48,24,24,24,0,0,0,24,0ZM35.48,30.56a3.11,3.11,0,1,1,0-.85ZM19.37,34.47a1.24,1.24,0,0,1-.58-1.66,1.26,1.26,0,0,1,1.68-.58,8.21,8.21,0,0,0,7.33-.11,1.25,1.25,0,0,1,1.69.52A1.24,1.24,0,0,1,29,34.32a10.59,10.59,0,0,1-4.21,1.16H23.24A10.76,10.76,0,0,1,19.37,34.47ZM18.14,16.14a1.25,1.25,0,0,1,1.73.35,1.22,1.22,0,0,1-.35,1.72A8.07,8.07,0,0,0,15.87,25a1.26,1.26,0,0,1-2.51,0A10.54,10.54,0,0,1,18.14,16.14ZM34.69,25a1.26,1.26,0,0,1-2.51,0,8.08,8.08,0,0,0-3.52-6.65,1.23,1.23,0,0,1-.32-1.73,1.26,1.26,0,0,1,1.74-.31A10.53,10.53,0,0,1,34.69,25ZM24,12.52h0a3.11,3.11,0,1,1-3.13,3.11A3.13,3.13,0,0,1,24,12.52ZM15.66,27a3.11,3.11,0,1,1-3.14,3.1A3.12,3.12,0,0,1,15.66,27Z"/></svg>