<?xml version="1.0" standalone="no"?><!DOCTYPE svg PUBLIC "-//W3C//DTD SVG 1.1//EN" "http://www.w3.org/Graphics/SVG/1.1/DTD/svg11.dtd"><svg t="1529908699194" class="icon" style="" viewBox="0 0 1024 1024" version="1.1" xmlns="http://www.w3.org/2000/svg" p-id="2835" xmlns:xlink="http://www.w3.org/1999/xlink" width="200" height="200"><defs><style type="text/css"></style></defs><path d="M512 0a512 512 0 1 0 512 512A512 512 0 0 0 512 0z m256 704a64 64 0 0 1-64 64h-384A64 64 0 0 1 256 704V384a64 64 0 0 1 64-64H384v-32a32 32 0 0 1 64 0v32h128v-32a32 32 0 0 1 64 0v32h64A64 64 0 0 1 768 384z" fill="#3F86F5" p-id="2836"></path><path d="M672 384H640v32a32 32 0 0 1-64 0V384h-128v32a32 32 0 0 1-64 0V384h-32a32 32 0 0 0-32 32v64a32 32 0 0 0 32 32h320a32 32 0 0 0 32-32v-64a32 32 0 0 0-32-32z" fill="#3F86F5" p-id="2837"></path></svg>