<svg xmlns="http://www.w3.org/2000/svg" viewBox="0 0 70.87 70.87"><defs><style>.cls-1{fill:#ffbe00;}</style></defs><title>部门统筹HRBP资源 74</title><g id="图层_2" data-name="图层 2"><g id="图层_1-2" data-name="图层 1"><path class="cls-1" d="M25,1.59A35.42,35.42,0,1,0,69.28,25,35.41,35.41,0,0,0,25,1.59ZM53.91,31.48l-24,16.3a7.18,7.18,0,0,1-9-.75l-4.61-4.48a.35.35,0,0,1,.06-.54l.71-.47a1.59,1.59,0,0,1,1.59-.08L23,43.64a2.91,2.91,0,0,0,3-.25l4.16-3a1.24,1.24,0,0,0,.06-2l-9.71-7.92a.54.54,0,0,1,0-.88l1.28-.79a3.16,3.16,0,0,1,2.82-.27l12.52,4.83a4,4,0,0,0,3.7-.45L50,26.55a3,3,0,0,1,4.15.77h0C55.07,28.67,55.25,30.56,53.91,31.48Z"/></g></g></svg>