<svg xmlns="http://www.w3.org/2000/svg" class="icon" width="200px" height="200.00px" viewBox="0 0 59.26 59.26"><path d="M36.8,47.31A3.35,3.35,0,0,0,40.14,44V27.24a3.35,3.35,0,1,0-6.69,0V44A3.35,3.35,0,0,0,36.8,47.31Z"/><path d="M55.91,12h-11V8.12A8.13,8.13,0,0,0,36.8,0H22.46a8.13,8.13,0,0,0-8.12,8.12V12h-11a3.35,3.35,0,1,0,0,6.69H7.24V51.2a8.07,8.07,0,0,0,8,8.06H44a8.07,8.07,0,0,0,8.06-8.06V18.64h3.82a3.35,3.35,0,1,0,0-6.69ZM22.46,6.69H36.8a1.43,1.43,0,0,1,1.43,1.43V12H21V8.12A1.43,1.43,0,0,1,22.46,6.69Zm22.94,12V51.2A1.37,1.37,0,0,1,44,52.57H15.29a1.38,1.38,0,0,1-1.36-1.37V18.64Z"/><path d="M22.46,47.31A3.35,3.35,0,0,0,25.8,44V27.24a3.35,3.35,0,1,0-6.69,0V44A3.36,3.36,0,0,0,22.46,47.31Z"/></svg>