<svg xmlns="http://www.w3.org/2000/svg" viewBox="0 0 99.98 99.98"><path class="cls-1" d="M67.75,57.94a1.33,1.33,0,0,0-1.87,0l-3,3-3-3A1.32,1.32,0,0,0,58,59.81l3,3-3,3a1.32,1.32,0,0,0,.93,2.25,1.29,1.29,0,0,0,.93-.39l3-3,3,3a1.32,1.32,0,0,0,1.87-1.86l-3-3,3-3A1.33,1.33,0,0,0,67.75,57.94Z"/><path class="cls-1" d="M50,0a50,50,0,1,0,50,50A50,50,0,0,0,50,0ZM52.3,73.17h0c-1.24,0-2.52.1-3.85.1h-1c-1.33,0-2.62,0-3.86-.09v0a106.9,106.9,0,0,1-15.59-1.84,9,9,0,0,1-2.54-.79c-.36-.27-.62-1-.8-2.36a10.22,10.22,0,0,1,.22-3.72,4.17,4.17,0,0,1,1.46-2.7,9.09,9.09,0,0,1,2.75-1.44c1.06-.36,6-2,7.07-2.33a9.82,9.82,0,0,0,2.94-1.26,7.68,7.68,0,0,0,1.58-1.2,4.2,4.2,0,0,0,.64-.85l0,0,.06-.11v0a.5.5,0,0,0,0-.13,3.46,3.46,0,0,0,.22-1.21c0-.41,0-.87,0-1.36A2.62,2.62,0,0,0,40.93,50c-.44-.42-.92-.85-1.48-1.31a2.7,2.7,0,0,1-.69-.94v0h0c-.2-.4-.39-.81-.55-1.23a11.94,11.94,0,0,1-.35-1.15c0-.1-.06-.2-.1-.3a2.17,2.17,0,0,1-.68-.34,4.3,4.3,0,0,1-.64-.68,3.16,3.16,0,0,1-.35-.61l0,0,0-.07,0-.07c-.05-.14-.11-.29-.16-.46a3.78,3.78,0,0,1-.18-1,3.48,3.48,0,0,1,0-1.14,3,3,0,0,1,.31-.87,1.28,1.28,0,0,1,.5-.57l0,0a23.84,23.84,0,0,1,.2-3.67,21.23,21.23,0,0,1,.71-3.29A10.94,10.94,0,0,1,38.91,29,9.66,9.66,0,0,1,41,26.86a10.48,10.48,0,0,1,2.31-1.33,11.3,11.3,0,0,1,2.36-.68,15,15,0,0,1,2-.2h.72a15,15,0,0,1,2,.2,11.3,11.3,0,0,1,2.36.68A10.48,10.48,0,0,1,55,26.86,9.41,9.41,0,0,1,57,29a10.7,10.7,0,0,1,1.49,3.14,20.05,20.05,0,0,1,.7,3.29,22.65,22.65,0,0,1,.2,3.67l0,0a1.24,1.24,0,0,1,.51.57,3.34,3.34,0,0,1,.31.87,3.78,3.78,0,0,1,0,1.14,4.78,4.78,0,0,1-.18,1c0,.17-.11.32-.16.46l0,.07,0,.07,0,0a3.16,3.16,0,0,1-.35.61,4.3,4.3,0,0,1-.64.68,2.21,2.21,0,0,1-.69.34l-.09.3c-.11.4-.23.79-.35,1.15s-.35.83-.55,1.23h0v0a2.7,2.7,0,0,1-.69.94c-.56.46-1.05.89-1.48,1.31a2.35,2.35,0,0,0-.26.29A14.86,14.86,0,0,0,52.35,73,.08.08,0,0,1,52.3,73.17Zm23-9.06c0,.21-.05.42-.08.63s0,.2,0,.3-.08.41-.13.61A2.82,2.82,0,0,1,75,66c0,.2-.11.39-.17.59l-.09.29a12.68,12.68,0,0,1-1.16,2.47c-.15.26-.32.51-.49.76a12.93,12.93,0,0,1-1.36,1.6A12.16,12.16,0,0,1,70.09,73c-.24.18-.5.34-.75.5a12.34,12.34,0,0,1-2.47,1.15l-.3.1-.59.16-.3.08-.61.12-.31.05c-.21,0-.41.06-.62.08a11,11,0,0,1-1.28.07,10.86,10.86,0,0,1-1.28-.07c-.21,0-.42,0-.63-.08l-.3-.05c-.21,0-.41-.08-.61-.12l-.31-.08-.59-.16-.29-.1a12.09,12.09,0,0,1-2.47-1.15c-.22-.13-.43-.27-.64-.42L55.62,73a12.4,12.4,0,0,1-2.95-3c-.18-.25-.34-.5-.5-.76A12.09,12.09,0,0,1,51,66.84c0-.1-.07-.19-.1-.29s-.11-.39-.16-.59a2.81,2.81,0,0,1-.08-.31c0-.2-.09-.4-.12-.61s0-.2-.05-.3-.06-.42-.08-.63a11.74,11.74,0,0,1,0-2.56c0-.21,0-.41.08-.62s0-.21.05-.31.08-.41.12-.61,0-.2.08-.3.1-.4.16-.59l.1-.3a12.34,12.34,0,0,1,1.15-2.47c.16-.25.32-.51.5-.75A12.16,12.16,0,0,1,54,54l.09-.09a13,13,0,0,1,1.51-1.27c.25-.17.5-.34.76-.49A12.68,12.68,0,0,1,58.85,51l.29-.09.59-.17.31-.07.61-.13.3-.05.63-.08c.42,0,.85-.06,1.28-.06s.85,0,1.28.06l.62.08.31.05.61.13.3.07.59.17.3.09a13,13,0,0,1,2.47,1.16c.25.15.51.32.75.49a13,13,0,0,1,3,3c.17.24.34.5.49.75a13,13,0,0,1,1.16,2.47l.09.3c.06.19.12.39.17.59s.05.2.07.3.09.41.13.61,0,.21,0,.31.06.41.08.62c0,.42.06.85.06,1.28S75.33,63.69,75.29,64.11Z"/></svg>