<svg xmlns="http://www.w3.org/2000/svg" class="icon" width="200px" height="200.00px" viewBox="0 0 59.53 59.53"><path d="M53.53,48.09a5.45,5.45,0,0,1-5.44,5.44H11.44A5.44,5.44,0,0,1,6,48.09V11.44A5.43,5.43,0,0,1,11.44,6H30.33a3,3,0,0,0,3-3h0a3,3,0,0,0-3-3H11.44A11.44,11.44,0,0,0,0,11.44V48.09A11.44,11.44,0,0,0,11.44,59.53H48.09A11.44,11.44,0,0,0,59.53,48.09V29a3,3,0,0,0-3-3h0a3,3,0,0,0-3,3Z"/><path d="M23.46,38.91a3,3,0,0,1-2.12-5.13L53.62,1.5a3,3,0,0,1,4.24,4.25L25.58,38A3,3,0,0,1,23.46,38.91Z"/></svg>