<svg xmlns="http://www.w3.org/2000/svg" viewBox="0 0 70.87 70.87"><defs><style>.cls-1{fill:#fea100;}</style></defs><title>部门统筹HRBP资源 73</title><g id="图层_2" data-name="图层 2"><g id="图层_1-2" data-name="图层 1"><path class="cls-1" d="M50.2,30.78H49.06v4.68H50.2c2.32,0,2.89-1.37,2.89-2.35S52.5,30.78,50.2,30.78Z"/><path class="cls-1" d="M35,30.78H33.83v4.68H35c2.32,0,2.89-1.37,2.89-2.35S37.27,30.78,35,30.78Z"/><path class="cls-1" d="M35.43,0A35.44,35.44,0,1,0,70.87,35.43,35.43,35.43,0,0,0,35.43,0ZM27.08,43.41H15.8v-16H26.86V31.1H20.13v3h5.81v3.33H20.13v2.34h7Zm10.9,0-2.67-4.63H33.83v4.63H29.5v-16h6c4.19,0,6.84,2.44,6.84,5.68a5.26,5.26,0,0,1-2.92,4.77l3.42,5.51Zm12.63-4.63H49.06v4.63H44.72v-16h6c4.2,0,6.84,2.44,6.84,5.68S54.85,38.78,50.61,38.78Z"/></g></g></svg>