<svg xmlns="http://www.w3.org/2000/svg" class="icon" width="200px" height="200.00px" viewBox="0 0 24 24"><path d="M12,19.3999999 C4.372583,19.3999999 0,13.2274169 0,11.9999999 C1.21877213e-16,10.7725829 4.372583,4.5999999 12,4.5999999 C19.627417,4.5999999 24,10.7725829 24,11.9999999 C24,13.2274169 19.627417,19.3999999 12,19.3999999 Z M12,17.9999999 C15.0539512,17.9999999 17.7673362,16.9057803 19.9667938,15.0824688 C20.8179497,14.3768754 21.5384067,13.5985918 22.052982,12.8679418 C22.2643898,12.567762 22.4274242,12.2936314 22.5300539,12.0751452 C22.5831668,11.9620744 22.6,11.9061257 22.6,11.9999999 C22.6,12.0938741 22.5831668,12.0379254 22.5300539,11.9248546 C22.4274242,11.7063684 22.2643898,11.4322378 22.052982,11.132058 C21.5384067,10.401408 20.8179497,9.62312436 19.9667938,8.91753105 C17.7673362,7.0942195 15.0539512,5.99999988 12,5.99999988 C8.94604877,5.99999988 6.23266375,7.0942195 4.03320623,8.91753105 C3.18205026,9.62312436 2.4615933,10.401408 1.94701799,11.132058 C1.73561018,11.4322378 1.5725758,11.7063684 1.4699461,11.9248546 C1.41683323,12.0379254 1.39999998,12.0938741 1.39999998,11.9999999 C1.39999998,11.9061257 1.41683323,11.9620744 1.4699461,12.0751452 C1.5725758,12.2936314 1.73561018,12.567762 1.94701799,12.8679418 C2.4615933,13.5985918 3.18205026,14.3768754 4.03320623,15.0824688 C6.23266375,16.9057803 8.94604877,17.9999999 12,17.9999999 Z M11.9499998,17.1999998 C9.05050487,17.1999998 6.69999981,14.8494947 6.69999981,11.9499998 C6.69999981,9.05050487 9.05050487,6.69999981 11.9499998,6.69999981 C14.8494947,6.69999981 17.1999998,9.05050487 17.1999998,11.9499998 C17.1999998,14.8494947 14.8494947,17.1999998 11.9499998,17.1999998 Z M9.12533661,12.3226468 C8.97264283,11.7842579 9.0291176,11.1851088 9.31158296,10.5062723 C9.57337125,9.87712809 10.0926983,9.42168332 10.915833,9.12733552 C11.253856,9.00646061 11.4298894,8.63445034 11.3090145,8.29642731 C11.1881396,7.95840429 10.8161293,7.78237096 10.4781063,7.90324587 C9.32606257,8.31520945 8.52171835,9.0206115 8.11134251,10.0068496 C7.72164375,10.9433953 7.63714336,11.8398723 7.87466339,12.6773532 C7.97261288,13.0227171 8.33198937,13.2232861 8.67735324,13.1253366 C9.02271712,13.0273871 9.2232861,12.6680106 9.12533661,12.3226468 Z"></path></svg>