<svg xmlns="http://www.w3.org/2000/svg" class="icon" width="200px" height="200.00px" viewBox="0 0 24 24"><path d="M19.9089475,11.1894055 L21.4540957,13.5296384 C21.6671081,13.8522602 21.5782521,14.2864773 21.2556303,14.4994897 C20.9330086,14.712502 20.4987914,14.623646 20.2857791,14.3010242 L18.5990347,11.7463342 C17.922169,11.9911419 17.2060707,12.1886766 16.4510262,12.3391049 L17.3642682,15.0788308 C17.4865216,15.4455912 17.2883096,15.8420151 16.9215493,15.9642686 C16.554789,16.086522 16.158365,15.88831 16.0361116,15.5215497 L15.0486577,12.5591879 C14.3484216,12.6412109 13.6186063,12.6873747 12.8594024,12.6977902 L12.9431127,15.7616206 C12.9536714,16.1480757 12.6489472,16.469919 12.2624921,16.4804778 C11.876037,16.4910365 11.5541937,16.1863123 11.5436349,15.7998572 L11.4583053,12.6767552 C10.7364933,12.6446643 10.0424943,12.5794259 9.37647503,12.4809374 C9.37283538,12.494505 9.36876896,12.5080474 9.3642682,12.5215497 L8.3642682,15.5215497 C8.24201476,15.88831 7.84559078,16.086522 7.47883047,15.9642686 C7.11207015,15.8420151 6.91385816,15.4455912 7.0361116,15.0788308 L7.98960223,12.218359 C7.12422467,12.0163097 6.31256416,11.7505556 5.55506142,11.4208252 C5.53744016,11.5045167 5.50407807,11.5863634 5.45409527,11.6620658 L3.71171231,14.3010242 C3.4987,14.623646 3.06448281,14.712502 2.74186107,14.4994897 C2.41923932,14.2864773 2.33038332,13.8522602 2.54339563,13.5296384 L4.28577859,10.89068 C4.30395685,10.8631478 4.32374608,10.837318 4.34493946,10.813233 C3.69585145,10.4401781 3.09390232,10.011558 2.53944752,9.52715406 C2.24830838,9.27279795 2.21848983,8.83058667 2.47284594,8.53944752 C2.72720205,8.24830838 3.16941333,8.21848983 3.46055248,8.47284594 C5.60055109,10.3424733 8.5941121,11.2909002 12.4706738,11.3000019 C16.345026,11.3090985 19.3361712,10.361437 21.4750377,8.47501456 C21.7649791,8.21929403 22.2073256,8.24703558 22.4630461,8.53697703 C22.7187666,8.82691849 22.6910251,9.26926492 22.4010836,9.52498544 C21.6559011,10.1822163 20.8248873,10.7368474 19.9089475,11.1894055 Z"></path></svg>