<svg xmlns="http://www.w3.org/2000/svg" class="icon" width="200px" height="200.00px" viewBox="0 0 12 12">
<path d="M8.5,6.7C8.8,6.7,9,7,9,7.3c0,0.3-0.2,0.5-0.5,0.5h-2v1.3c0,0.3-0.2,0.5-0.5,0.5
c-0.3,0-0.5-0.2-0.5-0.5V7.8h-2c-0.3,0-0.5-0.2-0.5-0.5c0-0.3,0.2-0.5,0.5-0.5h2V6h-2C3.1,6,2.9,5.7,2.9,5.4
c0-0.3,0.2-0.5,0.5-0.5h1.7L4,3.8C3.8,3.6,3.8,3.2,4,3c0.2-0.2,0.5-0.2,0.8,0l1.2,1.2L7.2,3c0.2-0.2,0.5-0.2,0.8,0
c0.2,0.2,0.2,0.5,0,0.8L6.8,4.9h1.7C8.8,4.9,9,5.1,9,5.4C9,5.7,8.8,6,8.5,6h-2v0.8H8.5z M5.9,0C2.7,0,0,2.7,0,5.9
s2.7,5.9,5.9,5.9c3.3,0,5.9-2.7,5.9-5.9S9.2,0,5.9,0z"/>
</svg>
