<svg xmlns="http://www.w3.org/2000/svg" class="icon" width="200px" height="200.00px" viewBox="0 0 48 48"><path d="M24,0A24,24,0,1,0,48,24,24,24,0,0,0,24,0Zm9.27,33.32a1,1,0,0,1-1,1H15.8a1,1,0,0,1-1-1V24.77a1,1,0,0,1,1-1H32.27a1,1,0,0,1,1,1Zm1.32-11.87a1,1,0,0,1-1,1H14.48a1,1,0,0,1-1-1v-.64a1,1,0,0,1,1-1h2.65a4.74,4.74,0,0,1-.58-.47c-1.77-1.78-2.15-4.4-.66-5.89s4.11-1.12,5.89.66a7.56,7.56,0,0,1,1.49,2.63c.17.46.33,1,.49,1.47s.23.78.33,1.17q.15-.59.33-1.17c.15-.52.32-1,.49-1.47a7.56,7.56,0,0,1,1.49-2.63c1.77-1.78,4.4-2.16,5.89-.66s1.11,4.11-.67,5.89a4,4,0,0,1-.57.47h2.54a1,1,0,0,1,1,1Z"/><path d="M31,14.75c-.67-.67-2.15-.46-3.28.67a6.07,6.07,0,0,0-1.06,2q-.24.63-.45,1.35c-.12.37-.22.75-.32,1.12L27,19.55c.48-.15.94-.3,1.35-.45a6.33,6.33,0,0,0,2-1.07C31.44,16.91,31.66,15.43,31,14.75Z"/><path d="M21.54,17.39a6.05,6.05,0,0,0-1.07-2c-1.12-1.13-2.6-1.34-3.27-.67s-.46,2.16.66,3.28a6.33,6.33,0,0,0,2,1.07c.41.15.86.3,1.34.45l1.13.31c-.1-.37-.21-.75-.32-1.12S21.7,17.81,21.54,17.39Z"/></svg>