<svg xmlns="http://www.w3.org/2000/svg" class="icon" width="200px" height="200.00px" viewBox="0 0 48 48"><path d="M24,0A24,24,0,1,0,48,24,24,24,0,0,0,24,0ZM18.53,19.11A3.35,3.35,0,0,1,21,20.34l.13.14-.1.17a19.68,19.68,0,0,0-1.82,6.79.61.61,0,0,1-.61.61H15a.56.56,0,0,1-.56-.56C14.45,24.18,16.28,19.11,18.53,19.11Zm-2.21-2.38A2.17,2.17,0,1,1,18.49,19,2.23,2.23,0,0,1,16.32,16.73Zm7.62,2.38c2.25,0,4.07,5.07,4.07,8.38a.56.56,0,0,1-.55.56h-7a.56.56,0,0,1-.56-.56C19.87,24.18,21.69,19.11,23.94,19.11Zm-2.13-2.38A2.17,2.17,0,1,1,24,19,2.23,2.23,0,0,1,21.81,16.73ZM27,20.65l-.1-.17.13-.14a3.32,3.32,0,0,1,2.48-1.23c2.25,0,4.08,5.07,4.08,8.38a.56.56,0,0,1-.56.56h-3.6a.61.61,0,0,1-.61-.61A19.91,19.91,0,0,0,27,20.65Zm.38-3.92A2.17,2.17,0,1,1,29.54,19,2.23,2.23,0,0,1,27.37,16.73ZM16.85,28.81H31.2a2.4,2.4,0,1,1,0,4.79H16.85a2.4,2.4,0,1,1,0-4.79Z"/></svg>