<svg xmlns="http://www.w3.org/2000/svg" xmlns:xlink="http://www.w3.org/1999/xlink" viewBox="0 0 100.14 100.14"><path class="cls-1" d="M50.07,0a50.07,50.07,0,1,0,50.07,50.07A50.07,50.07,0,0,0,50.07,0ZM73.61,68.23a4.9,4.9,0,0,1-4.9,4.9H31.43a4.9,4.9,0,0,1-4.9-4.9V34.87a4.9,4.9,0,0,1,4.9-4.9h4.1v-.92a2.05,2.05,0,0,1,4.1,0V30H60.51v-.92a2,2,0,1,1,4.09,0V30h4.11a4.9,4.9,0,0,1,4.9,4.9ZM62.14,48.66a2,2,0,0,1-.07,2.82L47.87,65l0,0,0,0-.16.11a.94.94,0,0,1-.12.09l-.21.11-.12.06-.25.07-.11,0a2.19,2.19,0,0,1-.36,0,1.81,1.81,0,0,1-.4,0l-.14,0-.25-.08a1.19,1.19,0,0,1-.15-.09l-.21-.11-.14-.13L45,65l0,0,0,0L38,57a2,2,0,0,1,3-2.66l5.67,6.39,12.7-12.11A2,2,0,0,1,62.14,48.66ZM70,36.05v4.41a2.36,2.36,0,0,1-2.36,2.37H32.48a2.37,2.37,0,0,1-2.37-2.37V36.05a2.37,2.37,0,0,1,2.37-2.37h3.05v1.65a2.05,2.05,0,0,0,4.1,0V33.68H60.51v1.65a2,2,0,0,0,4.09,0V33.68h3.06A2.36,2.36,0,0,1,70,36.05Z"/></svg>