<?xml version="1.0" encoding="UTF-8"?>
<svg class="icon" width="200px" height="200.00px" viewBox="0 0 22 22" version="1.1" xmlns="http://www.w3.org/2000/svg" xmlns:xlink="http://www.w3.org/1999/xlink">
    <!-- Generator: Sketch 49 (51002) - http://www.bohemiancoding.com/sketch -->
    <title>Page 1</title>
    <desc>Created with Sketch.</desc>
    <defs>
        <polygon id="path-1" points="0 0 24 0 24 24.0000842 0 24.0000842"></polygon>
    </defs>
    <g id="Page-1" stroke="none" stroke-width="1" fill="none" fill-rule="evenodd">
        <g id="我的实验2" transform="translate(-36.000000, -411.000000)">
            <g id="yijian" transform="translate(35.000000, 410.000000)">
                <g id="Page-1">
                    <mask id="mask-2" fill="white">
                        <use xlink:href="#path-1"></use>
                    </mask>
                    <g id="Clip-2"></g>
                    <path d="M7.2605661,16.7207898 C6.05243051,15.5126542 6.05243051,13.5539085 7.2605661,12.3457729 C8.46870169,11.1376373 10.4274475,11.1376373 11.6355831,12.3457729 C12.8437186,13.5539085 12.8437186,15.5126542 11.6355831,16.7207898 C10.4274475,17.9289254 8.46870169,17.9289254 7.2605661,16.7207898 M22.0896847,8.0114 L15.9699559,1.89167119 C14.8267017,0.748044068 13.0227017,0.697705085 11.9409729,1.7794339 L1.84931186,11.8710949 C1.35673559,12.3636712 1.07819322,13.0352305 1.06998983,13.7507898 L1.00026102,19.9402475 C0.981616949,21.5988237 2.38290508,23.0001119 4.04110847,22.9814678 L10.2305661,22.9113661 C10.9464983,22.9031627 11.6176847,22.6249932 12.1106339,22.1320441 L22.201922,12.0407559 C23.2836508,10.9590271 23.2333119,9.15502712 22.0896847,8.0114" id="Fill-1" fill="#00C14C" mask="url(#mask-2)"></path>
                </g>
            </g>
        </g>
    </g>
</svg>