<?xml version="1.0" encoding="UTF-8"?>
<svg class="icon" width="200px" height="200.00px" viewBox="0 0 23 23" version="1.1" xmlns="http://www.w3.org/2000/svg" xmlns:xlink="http://www.w3.org/1999/xlink">
    <!-- Generator: Sketch 49 (51002) - http://www.bohemiancoding.com/sketch -->
    <title>Page 1</title>
    <desc>Created with Sketch.</desc>
    <defs>
        <polygon id="path-1" points="0.5 0.5 24.5 0.5 24.5 24.4999562 0.5 24.4999562"></polygon>
    </defs>
    <g id="Page-1" stroke="none" stroke-width="1" fill="none" fill-rule="evenodd">
        <g id="我的实验2" transform="translate(-35.000000, -475.000000)">
            <g id="Page-1" transform="translate(34.000000, 474.000000)">
                <mask id="mask-2" fill="white">
                    <use xlink:href="#path-1"></use>
                </mask>
                <g id="Clip-2"></g>
                <path d="M12.4575964,17.3241873 C9.76952364,17.3241873 7.59079636,15.14546 7.59079636,12.4573873 C7.59079636,9.76973273 9.76952364,7.59100545 12.4575964,7.59100545 C15.1452509,7.59100545 17.3243964,9.76973273 17.3243964,12.4573873 C17.3243964,15.14546 15.1452509,17.3241873 12.4575964,17.3241873 M23.34496,11.0811509 L21.6998327,9.43560545 C21.33476,9.07053273 21.1294327,8.57540545 21.1294327,8.05895091 L21.1294327,5.73218727 C21.1294327,4.65704182 20.2579418,3.78555091 19.1827964,3.78555091 L16.8560327,3.78555091 C16.3395782,3.78555091 15.8444509,3.58064182 15.4793782,3.21556909 L13.8342509,1.57002364 C13.0739964,0.809769091 11.8411964,0.809769091 11.0809418,1.57002364 L9.43581455,3.21556909 C9.07074182,3.58064182 8.57561455,3.78555091 8.05916,3.78555091 L5.73239636,3.78555091 C4.65725091,3.78555091 3.78576,4.65704182 3.78576,5.73218727 L3.78576,8.05895091 C3.78576,8.57540545 3.58043273,9.07053273 3.21536,9.43560545 L1.57023273,11.0811509 C0.809978182,11.8414055 0.809978182,13.0737873 1.57023273,13.8340418 L3.21536,15.4791691 C3.58043273,15.8442418 3.78576,16.3397873 3.78576,16.8558236 L3.78576,19.1825873 C3.78576,20.2577327 4.65725091,21.1296418 5.73239636,21.1296418 L8.05916,21.1296418 C8.57561455,21.1296418 9.07074182,21.3345509 9.43581455,21.6996236 L11.0809418,23.3447509 C11.8411964,24.1050055 13.0739964,24.1050055 13.8342509,23.3447509 L15.4793782,21.6996236 C15.8444509,21.3345509 16.3395782,21.1296418 16.8560327,21.1296418 L19.1827964,21.1296418 C20.2579418,21.1296418 21.1294327,20.2577327 21.1294327,19.1825873 L21.1294327,16.8558236 C21.1294327,16.3397873 21.33476,15.8442418 21.6998327,15.4791691 L23.34496,13.8340418 C24.1052145,13.0737873 24.1052145,11.8414055 23.34496,11.0811509" id="Fill-1" fill="#FF9500" mask="url(#mask-2)"></path>
            </g>
        </g>
    </g>
</svg>