<svg xmlns="http://www.w3.org/2000/svg" class="icon" width="200px" height="200.00px" viewBox="0 0 64.62 59.36"><path d="M53.29,0h-42A11.33,11.33,0,0,0,0,11.33V41.15A11.33,11.33,0,0,0,11.33,52.48H25.88a1.41,1.41,0,0,1,1.23.71L29.85,58a2.84,2.84,0,0,0,4.91,0l2.75-4.76a1.41,1.41,0,0,1,1.23-.71H53.29A11.33,11.33,0,0,0,64.62,41.15V11.33A11.33,11.33,0,0,0,53.29,0ZM17.42,29.89a3.69,3.69,0,1,1,3.7-3.69A3.69,3.69,0,0,1,17.42,29.89Zm14.89,0A3.69,3.69,0,1,1,36,26.2,3.69,3.69,0,0,1,32.31,29.89Zm14.89,0a3.69,3.69,0,1,1,3.69-3.69A3.7,3.7,0,0,1,47.2,29.89Z"/></svg>