<svg xmlns="http://www.w3.org/2000/svg" class="icon" width="200px" height="200.00px" viewBox="0 0 64.62 59.36"><path d="M53.29,0h-42A11.33,11.33,0,0,0,0,11.33V41.15A11.33,11.33,0,0,0,11.33,52.48H25.88a1.41,1.41,0,0,1,1.23.71L29.85,58a2.84,2.84,0,0,0,4.91,0l2.75-4.76a1.41,1.41,0,0,1,1.23-.71H53.29A11.33,11.33,0,0,0,64.62,41.15V11.33A11.33,11.33,0,0,0,53.29,0Zm5.33,41.15a5.33,5.33,0,0,1-5.33,5.33h-18a1.41,1.41,0,0,0-1.23.71l-.68,1.17L32.3,50.18l0,0-1.75-3a1.41,1.41,0,0,0-1.23-.71h-18A5.33,5.33,0,0,1,6,41.15V11.33A5.33,5.33,0,0,1,11.33,6h42a5.33,5.33,0,0,1,5.33,5.33Z"/><circle cx="32.31" cy="26.2" r="3.69"/><circle cx="47.2" cy="26.2" r="3.69"/><circle cx="17.42" cy="26.2" r="3.69"/></svg>