<svg xmlns="http://www.w3.org/2000/svg" viewBox="0 0 70.87 70.87"><defs><style>.cls-1{fill:#637afe;}</style></defs><title>部门统筹HRBP资源 75</title><g id="图层_2" data-name="图层 2"><g id="图层_1-2" data-name="图层 1"><path class="cls-1" d="M43.26,28.3,32.59,38.77,28,33.37a1.74,1.74,0,0,0-2.66,2.25l5.77,6.83.05,0,0,0,.12.1a1.27,1.27,0,0,0,.12.1,1.18,1.18,0,0,0,.19.11l.12.07L32,43l.11,0a2.07,2.07,0,0,0,.35,0h0a1.73,1.73,0,0,0,.32,0l.1,0,.2-.06.12-.06.17-.08.12-.09.09-.07,0,0a.1.1,0,0,1,0,0l12-11.79a1.74,1.74,0,0,0-2.44-2.48Z"/><path class="cls-1" d="M35.43,0A35.44,35.44,0,1,0,70.87,35.43,35.43,35.43,0,0,0,35.43,0ZM50.55,49.63a3.11,3.11,0,0,1-3.11,3.11h-24a3.11,3.11,0,0,1-3.11-3.11V21.24a3.11,3.11,0,0,1,3.11-3.11h24a3.11,3.11,0,0,1,3.11,3.11Z"/></g></g></svg>