<svg xmlns="http://www.w3.org/2000/svg" class="icon" width="200px" height="200.00px" viewBox="0 0 64.59 59.34"><path d="M61.51,13.58l-24-12.33a11.34,11.34,0,0,0-10.35,0l-24,12.33a5.66,5.66,0,0,0-3.08,5V48A11.34,11.34,0,0,0,11.34,59.34H53.25A11.34,11.34,0,0,0,64.59,48V18.62A5.66,5.66,0,0,0,61.51,13.58ZM27.7,53.34V39.29a4.6,4.6,0,0,1,9.19,0V53.34ZM58.59,48a5.35,5.35,0,0,1-5.34,5.34H42.89V39.29a10.6,10.6,0,0,0-21.19,0V53.34H11.34A5.34,5.34,0,0,1,6,48V18.82L29.86,6.59a5.32,5.32,0,0,1,4.87,0L58.59,18.82Z"/></svg>