<svg xmlns="http://www.w3.org/2000/svg" viewBox="0 0 47.61 55.54"><defs><style>.cls-1{fill:#b651f4;}</style></defs><title>部门统筹HRBP资源 87</title><g id="图层_2" data-name="图层 2"><g id="图层_1-2" data-name="图层 1"><path class="cls-1" d="M43.64,20.37H11.9V16.66h0c0-6.13,5.33-11.11,11.9-11.11a11.73,11.73,0,0,1,11.66,8.87,2.78,2.78,0,0,0,2.69,2.24h.48a2.73,2.73,0,0,0,2.67-3.31C39.66,5.73,32.45,0,23.8,0,13.94,0,6,7.46,6,16.66v3.71H4a3.84,3.84,0,0,0-4,3.7V51.84a3.84,3.84,0,0,0,4,3.7H43.64a3.84,3.84,0,0,0,4-3.7V24.07A3.84,3.84,0,0,0,43.64,20.37ZM26.78,40v5.29a3,3,0,0,1-6,0V40a5.48,5.48,0,0,1-3-4.78,5.77,5.77,0,0,1,5.95-5.56h0a5.77,5.77,0,0,1,6,5.56A5.48,5.48,0,0,1,26.78,40Z"/></g></g></svg>