<svg xmlns="http://www.w3.org/2000/svg" viewBox="0 0 100.14 100.14"><path class="cls-1" d="M57.13,41.66a7.06,7.06,0,1,1-7.06-7.06A7.06,7.06,0,0,1,57.13,41.66Zm43,8.41A50.07,50.07,0,1,1,50.07,0,50.07,50.07,0,0,1,100.14,50.07Zm-33,19.13c0-2.16-3.16-4-7.92-5.13a1,1,0,0,0-1,.35c-3,3.58-5.71,6.24-6.37,6.87l-.18.17a2.09,2.09,0,0,1-2.87,0l-.19-.17c-.67-.63-3.47-3.32-6.56-6.92a1,1,0,0,0-1-.35C36.21,65.11,33,67,33,69.2c0,3.36,7.65,6.08,17.09,6.08S67.16,72.56,67.16,69.2Zm.74-26.36a17.83,17.83,0,1,0-35.66,0c0,5.53,4.94,12.64,9.43,17.95a96.12,96.12,0,0,0,6.95,7.4l.18.16a2.1,2.1,0,0,0,2.88,0l.18-.17a95.66,95.66,0,0,0,6.77-7.35C63,55.52,67.9,48.38,67.9,42.84Z"/></svg>