<svg xmlns="http://www.w3.org/2000/svg" class="icon" width="200px" height="200.00px" viewBox="0 0 48 48"><path d="M24,0A24,24,0,1,0,48,24,24,24,0,0,0,24,0ZM14,18a2.47,2.47,0,0,1,2.47-2.47H19V14.18a.71.71,0,0,1,1.41,0V15.5h7.24V14.18a.71.71,0,0,1,.71-.7.7.7,0,0,1,.7.7V15.5h2.56A2.46,2.46,0,0,1,34.08,18V30.18a2.47,2.47,0,0,1-2.47,2.47H16.43A2.48,2.48,0,0,1,14,30.18Z"/><path d="M27.65,28.61a4.5,4.5,0,1,0-.95.95L28.17,31a.68.68,0,0,0,.95,0,.66.66,0,0,0,0-.95ZM24,29.1a3.16,3.16,0,1,1,3.16-3.16A3.17,3.17,0,0,1,24,29.1Z"/><path d="M16.6,19.94H31.44a1.25,1.25,0,0,0,1.24-1.24v-.55a1.24,1.24,0,0,0-1.24-1.24H29.05v.91a.7.7,0,0,1-.7.7.7.7,0,0,1-.71-.7v-.91H20.4v.91a.71.71,0,0,1-1.41,0v-.91H16.6a1.23,1.23,0,0,0-1.23,1.24v.55A1.24,1.24,0,0,0,16.6,19.94Z"/></svg>