<svg xmlns="http://www.w3.org/2000/svg" class="icon" width="200px" height="200.00px" viewBox="0 0 24 24">
    <path d="M16.01 4.552A8.86 8.86 0 0 0 12 3.6a8.9 8.9 0 1 0 8.9 8.9 8.86 8.86 0 0 0-.965-4.036.6.6 0 0 1 1.069-.544A10.059 10.059 0 0 1 22.1 12.5c0 5.578-4.522 10.1-10.1 10.1-5.578 0-10.1-4.522-10.1-10.1C1.9 6.922 6.422 2.4 12 2.4c1.577 0 3.104.362 4.486 1.048l-.914-2.26a.6.6 0 0 1 1.113-.45l1.424 3.523a.608.608 0 0 1 .017.05.6.6 0 0 1-.319.81l-3.523 1.423a.6.6 0 1 1-.45-1.112l2.176-.88z"/>
</svg>
