<svg xmlns="http://www.w3.org/2000/svg" class="icon" width="200px" height="200.00px" viewBox="0 0 24 24">
    <path d="M20.482 12c0 .331-.22.6-.493.6H3.992c-.272 0-.492-.268-.492-.6 0-.332.22-.6.493-.6H19.99c.272 0 .492.268.492.6zm-5.515-8a1 1 0 0 1 0-2H19a3 3 0 0 1 3 3v4.087a1 1 0 0 1-2 0V5a1 1 0 0 0-1-1h-4.033zM20 15.071a1 1 0 1 1 2 0V19a3 3 0 0 1-3 3h-3.962a1 1 0 1 1 0-2H19a1 1 0 0 0 1-1v-3.929zM9.004 20a1 1 0 0 1 0 2H5a3 3 0 0 1-3-3v-4.006a1 1 0 0 1 2 0V19a1 1 0 0 0 1 1h4.004zM4 8.994a1 1 0 0 1-2 0V5a3 3 0 0 1 3-3h3.992a1 1 0 1 1 0 2H5a1 1 0 0 0-1 1v3.994z"/>
</svg>
