<svg xmlns="http://www.w3.org/2000/svg" class="icon" width="200px" height="200.00px" viewBox="0 0 60.49 60.5"><path d="M6,12a6,6,0,0,1,6-6h8.69a3,3,0,0,0,3-3h0a3,3,0,0,0-3-3H12A12,12,0,0,0,0,12v7.27a3,3,0,0,0,3,3H3a3,3,0,0,0,3-3Z"/><path d="M48.49,6a6,6,0,0,1,6,6v7.27a3,3,0,0,0,3,3h0a3,3,0,0,0,3-3V12a12,12,0,0,0-12-12H39.8a3,3,0,0,0-3,3h0a3,3,0,0,0,3,3Z"/><path d="M12,54.5a6,6,0,0,1-6-6V41.22a3,3,0,0,0-3-3H3a3,3,0,0,0-3,3V48.5a12,12,0,0,0,12,12h8.69a3,3,0,0,0,3-3h0a3,3,0,0,0-3-3Z"/><path d="M54.49,48.5a6,6,0,0,1-6,6H39.8a3,3,0,0,0-3,3h0a3,3,0,0,0,3,3h8.69a12,12,0,0,0,12-12V41.22a3,3,0,0,0-3-3h0a3,3,0,0,0-3,3Z"/><path d="M52.84,33.25H7.65a3,3,0,1,1,0-6H52.84a3,3,0,0,1,0,6Z"/></svg>