<?xml version="1.0" encoding="UTF-8"?>
<svg class="icon" width="200px" height="200.00px" viewBox="0 0 17 17" version="1.1" xmlns="http://www.w3.org/2000/svg" xmlns:xlink="http://www.w3.org/1999/xlink">
    <path d="M15.1661817,13.6810984 C15.1661817,14.5177213 14.4765483,15.1963279 13.6256983,15.1963279 L3.24039833,15.1963279 C2.38954833,15.1963279 1.699915,14.518 1.699915,13.6810984 L1.699915,3.46604918 C1.699915,2.62914754 2.38983167,1.95081967 3.24039833,1.95081967 L7.130565,1.95081967 C7.60004833,1.95081967 7.980565,1.5762623 7.980565,1.1147541 C7.980565,0.652967213 7.60004833,0.278688525 7.130565,0.278688525 L3.24039833,0.278688525 C1.450865,0.278688525 -8.5e-05,1.70557377 -8.5e-05,3.46604918 L-8.5e-05,13.6810984 C-8.5e-05,15.4412951 1.450865,16.868459 3.24039833,16.868459 L13.6256983,16.868459 C15.4152317,16.868459 16.8661817,15.4412951 16.8661817,13.6810984 L16.8661817,9.81345902 C16.8661817,9.35195082 16.485665,8.97739344 16.0161817,8.97739344 C15.5466983,8.97739344 15.1661817,9.35195082 15.1661817,9.81345902 L15.1661817,13.6810984 Z" id="Fill-1" fill="#000000" mask="url(#mask-2)"></path>
    <path d="M16.436195,1.88365574 C16.1494617,1.39204918 15.7338117,0.983770492 15.2340117,0.701737705 C14.7597117,0.433918033 14.211745,0.278688525 13.6258117,0.278688525 L10.6981283,0.278688525 C10.228645,0.278688525 9.84812833,0.652967213 9.84812833,1.1147541 C9.84812833,1.5762623 10.228645,1.95081967 10.6981283,1.95081967 L13.6258117,1.95081967 C13.7309283,1.95081967 13.8337783,1.96140984 13.9332283,1.98147541 L9.84812833,5.99960656 L8.38216167,7.44098361 L5.03146167,10.7373115 C4.699395,11.063377 4.699395,11.5931639 5.03146167,11.9195082 C5.19721167,12.0828197 5.41481167,12.1644754 5.63241167,12.1644754 C5.84972833,12.1644754 6.06732833,12.0828197 6.23336167,11.9195082 L9.62571167,8.5824918 L11.0916783,7.14055738 L15.1351283,3.16339344 C15.155245,3.26121311 15.166295,3.36265574 15.166295,3.46604918 L15.166295,6.3044918 C15.166295,6.76655738 15.5465283,7.14055738 16.016295,7.14055738 C16.485495,7.14055738 16.866295,6.76655738 16.866295,6.3044918 L16.866295,3.46604918 C16.866295,2.88944262 16.708195,2.35045902 16.436195,1.88365574" id="Fill-4" fill="#000000" mask="url(#mask-2)"></path>
</svg>