<svg xmlns="http://www.w3.org/2000/svg" class="icon" width="200px" height="200.00px" viewBox="0 0 24 24"><path d="M4.84334411,3.14429271 C5.34323616,3.04901018 5.84183375,3.44196096 6.49375032,4.41971328 C6.60544489,4.58723414 6.71261535,4.75602029 6.92210908,5.08873017 C7.03496804,5.26557513 7.09101205,5.35357719 7.14678275,5.44227103 C7.86595645,6.58599468 8.11137908,7.28954441 7.9312144,8.0310883 C7.86261206,8.31566609 7.67911961,8.53532551 7.23129522,8.90179328 C7.10754672,9.00232492 7.03168793,9.06387526 6.97732063,9.1087888 C6.90322625,9.1703571 6.90322625,9.1703571 6.82822855,9.2349397 C6.78474423,9.27285612 6.73505051,9.31359924 6.67554539,9.3603132 C6.60810174,9.41325924 6.52889725,9.47326009 6.36185549,9.59949211 C5.71555554,10.0920506 5.57257185,10.5265676 5.41871275,11.0839726 C5.11792706,12.166958 5.59347632,13.1481752 6.36185549,14.3692629 C7.33197114,15.9021538 8.17530737,17.033386 9.56544173,18.1788737 C10.8143579,19.2105066 11.6613306,19.4619464 12.7203603,19.2462531 C13.4616858,19.0949145 13.8314719,19.0415224 14.5471438,18.2588918 L14.6001916,18.200855 C15.1827667,17.563635 15.4643647,17.3524098 15.9023983,17.2856404 C16.60735,17.1780404 17.1850613,17.45134 18.0206594,18.1788737 C18.1116506,18.2580974 18.477781,18.585723 18.5705414,18.6662331 C18.6749895,18.7573353 19.1368528,19.1441489 19.254256,19.2462531 C20.0165291,19.9091931 20.3451976,20.3900319 20.3104855,20.8633211 C20.2830622,21.2289231 20.0259891,21.5963368 19.524315,22.0357557 C19.0741159,22.4320751 18.6437056,22.7634635 18.2051828,23.0519984 C17.1931205,23.7185567 15.9487416,24.0410049 14.5083536,23.9958313 C13.2751344,23.9572395 12.0549509,23.6544545 10.6732286,23.0519984 C8.7148159,22.1980948 6.8626401,20.6460798 4.98145618,18.5141847 C3.21011057,16.5078636 2.17141147,14.3961537 1.53349944,12.3523362 C1.13762044,11.0839726 0.972648656,9.90866144 1.00366408,8.90179328 C1.05673828,7.17882057 1.77313281,5.93904244 2.74809045,4.81745146 C3.02954403,4.4922645 3.38863849,4.13393236 3.74733444,3.82642705 C4.27899192,3.3680227 4.53056215,3.20372979 4.84334411,3.14429271 Z M18.3375958,12.3648448 C18.3375958,12.8588138 17.9385169,13.2592548 17.4462282,13.2592548 C16.9539394,13.2592548 16.5548605,12.8588138 16.5548605,12.3648448 C16.5548605,9.52192459 14.6974177,7.04111283 12.0300262,6.22194688 C11.5592914,6.07738245 11.2944794,5.57728139 11.4385521,5.10493989 C11.5826248,4.6325984 12.0810248,4.3668826 12.5517596,4.51144703 C15.9633733,5.55916642 18.3375958,8.73019218 18.3375958,12.3648448 Z M23,10.8741616 C23,11.3681306 22.6009211,11.7685716 22.1086324,11.7685716 C21.6163436,11.7685716 21.2172647,11.3681306 21.2172647,10.8741616 C21.2172647,6.6514464 18.4584301,2.96673046 14.496143,1.7498972 C14.0254082,1.60533277 13.7605962,1.1052317 13.9046689,0.632890211 C14.0487416,0.160548719 14.5471416,-0.105167087 15.0178764,0.0393973474 C19.7243857,1.48478405 23,5.85971398 23,10.8741616 Z"></path></svg>