<svg xmlns="http://www.w3.org/2000/svg" class="icon" width="200px" height="200.00px" viewBox="0 0 48 48"><path d="M22.39,31.26a3.53,3.53,0,0,0-.59.8h4.4a3.53,3.53,0,0,0-.59-.8.76.76,0,0,0-.09-.09l-.09-.09a2.47,2.47,0,0,0-.27-.21,9.65,9.65,0,0,1-2.32,0,2.47,2.47,0,0,0-.27.21l-.09.09A.76.76,0,0,0,22.39,31.26Z"/><path d="M22.32,31l.09-.08.08-.08.05,0h-.07l-.13,0-.14,0-.32-.07a4.26,4.26,0,0,0-1,1.9.64.64,0,0,0,.13.55l0,0,0,0a6,6,0,0,1,.45-1.15A4.2,4.2,0,0,1,22.32,31Z"/><path d="M26.77,33.56l-.06-.21,0-.13H21.32l0,.13-.06.21-.06.32v0a.31.31,0,0,0,0,.1.29.29,0,0,0,0,.1l0,0a.3.3,0,0,0,.19.1h5.16a.3.3,0,0,0,.19-.1.08.08,0,0,0,0,0,.18.18,0,0,0,0-.1.31.31,0,0,0,0-.1v0Z"/><path d="M24.27,0A24,24,0,1,0,48,24.27,24,24,0,0,0,24.27,0ZM28,30a2.75,2.75,0,0,1,1.1.92,2.29,2.29,0,0,1-.26,3.19,1.87,1.87,0,0,1-1.07.32,2.18,2.18,0,0,1-.92-.22.15.15,0,0,1-.06.09.48.48,0,0,1-.31.17.45.45,0,0,1,0,.11v.59a.69.69,0,0,1,0,.2,1,1,0,0,1-.59.7.92.92,0,0,1-.38.07,1,1,0,0,1-.38-.08,1,1,0,0,1-.31-.21,1,1,0,0,1-.26-.5.68.68,0,0,1,0-.2v-.59a.38.38,0,0,1,0-.1H23.2s0,.06,0,.1v.58a1.23,1.23,0,0,1,0,.2.93.93,0,0,1-.28.49,1,1,0,0,1-.31.21,1,1,0,0,1-.38.08,1.12,1.12,0,0,1-.38-.09,1,1,0,0,1-.32-.21,1,1,0,0,1-.26-.5,1.36,1.36,0,0,1,0-.2v-.59s0-.07,0-.1a.58.58,0,0,1-.3-.18.47.47,0,0,1-.06-.09,2.3,2.3,0,0,1-.92.19A1.77,1.77,0,0,1,18.91,34a1.85,1.85,0,0,1-.74-1.45,2.65,2.65,0,0,1,.55-1.74,2.72,2.72,0,0,1,1.11-.9,8.16,8.16,0,0,1-4.51-7.28A8.25,8.25,0,0,1,21.08,15a1.8,1.8,0,0,0-1.43-1.31.52.52,0,0,1-.46.28.53.53,0,1,1,.53-.52v0a2.07,2.07,0,0,1,1.58,1.45,9.29,9.29,0,0,1,2.82-.41,8.94,8.94,0,0,1,2.8.48,2.09,2.09,0,0,1,1.61-1.42v0a.52.52,0,0,1,1,0,.52.52,0,0,1-.52.52.54.54,0,0,1-.46-.29,1.84,1.84,0,0,0-1.46,1.27,8.26,8.26,0,0,1,5.59,7.76A8.19,8.19,0,0,1,28,30Z"/><path d="M30.88,25.76c0,.27-.26.5-.64.62a6,6,0,0,1-3.47,3.43L26.3,30l-.48.14-.28.06a7.92,7.92,0,0,1-1.09.14l-.45,0-.45,0a7.92,7.92,0,0,1-1.09-.14l-.28-.06L21.7,30l-.47-.17a6,6,0,0,1-3.47-3.43c-.38-.12-.64-.35-.64-.62a.61.61,0,0,1,.39-.51,4.19,4.19,0,0,1,0-.5c0-2.62,2.1-4.82,4.94-5.43l.12,0h0a2,2,0,0,1,.35-.06h0l.33,0h0l.3,0h.86l.3,0h0l.33,0h0a2,2,0,0,1,.35.06h0l.12,0c2.84.61,4.94,2.81,4.94,5.43a4.19,4.19,0,0,1,0,.5A.61.61,0,0,1,30.88,25.76Z"/><path d="M26.12,30.69l-.32.07-.14,0-.13,0h-.07l.05,0,.08.08.09.08a4.2,4.2,0,0,1,.77,1,6,6,0,0,1,.45,1.15l0,0,0,0a.64.64,0,0,0,.13-.55A4.26,4.26,0,0,0,26.12,30.69Z"/></svg>