<svg xmlns="http://www.w3.org/2000/svg" class="icon" width="200px" height="200.00px" viewBox="0 0 48 48"><path d="M48,23A24,24,0,1,0,25.05,48,24,24,0,0,0,48,23ZM22.6,32.52a32,32,0,0,1-3.39,0c-.82,0-1.64-.08-2.46-.15-.57,0-1.12-.15-1.68-.22a.57.57,0,0,1-.47-.43,4.19,4.19,0,0,1-.2-1.57q0-.48.06-1a1.75,1.75,0,0,1,.87-1.28,5.59,5.59,0,0,1,1.31-.55c.48-.17,1-.32,1.42-.52a2.68,2.68,0,0,0,1.19-.94,1.14,1.14,0,0,0,.21-.76,5.93,5.93,0,0,0-.07-.59A.87.87,0,0,0,19,24c-.12-.1-.25-.21-.38-.3A1.66,1.66,0,0,1,18,22.9c-.1-.21-.18-.44-.28-.65a.18.18,0,0,0-.1-.11,1,1,0,0,1-.55-.46,1.44,1.44,0,0,1,0-1.72.24.24,0,0,0,0-.14c0-.52,0-1.05.06-1.57a4.92,4.92,0,0,1,.45-1.76,3.84,3.84,0,0,1,2.7-2.12,5.52,5.52,0,0,1,3.85.47,3.3,3.3,0,0,1,1.51,1.6,6.55,6.55,0,0,1,.6,2.2c0,.27.05.54.08.81a.12.12,0,0,0,0,.1,1,1,0,0,1,.35.82,1.64,1.64,0,0,1-.22,1,1.09,1.09,0,0,1-.45.4.2.2,0,0,0-.1.12c-.07.2-.13.41-.2.61a.18.18,0,0,1-.1.11,7.24,7.24,0,0,0-2.35,1.74A6.64,6.64,0,0,0,21.68,28h0a6.6,6.6,0,0,0,1,4.37,1.14,1.14,0,0,1,.09.16Zm8.32,2a5.82,5.82,0,0,1-2.1.49,6,6,0,0,1-2.38-11.52,6.92,6.92,0,0,1,1-.29l.2,0a4.07,4.07,0,0,1,.61,0h0a6,6,0,0,1,2.63,11.42Z"/><path d="M30.52,27,27.92,30l-1.45-1.58A1,1,0,0,0,25,29.72l2.2,2.4.05,0a.13.13,0,0,0,0,0,1.08,1.08,0,0,0,.18.11.6.6,0,0,0,.11.06,1,1,0,0,0,.37.08,1,1,0,0,0,.38-.08l.11-.07a2,2,0,0,0,.19-.12l0,0,0,0L32,28.34A1,1,0,1,0,30.52,27Z"/></svg>