<svg xmlns="http://www.w3.org/2000/svg" class="icon" width="200px" height="200.00px" viewBox="0 0 48 48"><path d="M24,0A24,24,0,1,0,48,24,24,24,0,0,0,24,0Zm8.65,32.46a1.68,1.68,0,0,1-1.53,1.77H16.93a1.68,1.68,0,0,1-1.53-1.77V15.25a1.67,1.67,0,0,1,1.53-1.77H31.12a1.68,1.68,0,0,1,1.53,1.77Z"/><path d="M17.31,19.27a1,1,0,0,1,1-1h2.8a1,1,0,0,1,1,1v2.79a1,1,0,0,1-1,1h-2.8a1,1,0,0,1-1-1ZM30,30.35H18.08a.77.77,0,0,1,0-1.54H30a.77.77,0,0,1,0,1.54Zm0-3.84H18.08a.77.77,0,1,1,0-1.53H30a.77.77,0,1,1,0,1.53Zm0-3.35H24.79a.77.77,0,1,1,0-1.53H30a.77.77,0,1,1,0,1.53Zm0-3.35H24.79a.77.77,0,0,1,0-1.54H30a.77.77,0,0,1,0,1.54Z"/><rect x="17.31" y="18.27" width="4.79" height="4.79" rx="1" ry="1"/><rect x="17.31" y="18.27" width="4.79" height="4.79" rx="1" ry="1"/><path d="M30,21.63H24.79a.77.77,0,1,0,0,1.53H30a.77.77,0,1,0,0-1.53Z"/><path d="M30,21.63H24.79a.77.77,0,1,0,0,1.53H30a.77.77,0,1,0,0-1.53Z"/><path d="M30,18.27H24.79a.77.77,0,0,0,0,1.54H30a.77.77,0,0,0,0-1.54Z"/><path d="M30,18.27H24.79a.77.77,0,0,0,0,1.54H30a.77.77,0,0,0,0-1.54Z"/><path d="M30,25H18.08a.77.77,0,1,0,0,1.53H30A.77.77,0,1,0,30,25Z"/><path d="M30,25H18.08a.77.77,0,1,0,0,1.53H30A.77.77,0,1,0,30,25Z"/><path d="M30,28.81H18.08a.77.77,0,0,0,0,1.54H30a.77.77,0,0,0,0-1.54Z"/><path d="M30,28.81H18.08a.77.77,0,0,0,0,1.54H30a.77.77,0,0,0,0-1.54Z"/></svg>